<svg xmlns="http://www.w3.org/2000/svg" viewBox="0 0 64 64" role="img" aria-label="Batidas Ímpares">
  <defs>
    <linearGradient id="bg" x1="8" y1="6" x2="56" y2="58" gradientUnits="userSpaceOnUse">
      <stop stop-color="#1f6bd6"/>
      <stop offset="1" stop-color="#16458f"/>
    </linearGradient>
    <filter id="shadow" x="-20%" y="-20%" width="140%" height="140%">
      <feDropShadow dx="0" dy="2" stdDeviation="2" flood-color="#0b2b5d" flood-opacity=".28"/>
    </filter>
  </defs>
  <rect x="3" y="3" width="58" height="58" rx="16" fill="url(#bg)" filter="url(#shadow)"/>
  <path d="M18 31c0-8 6-14 14-14s14 6 14 14" fill="none" stroke="#fff" stroke-width="4" stroke-linecap="round"/>
  <path d="M22 35c0-6 4-10 10-10s10 4 10 10c0 7-2 12-5 16" fill="none" stroke="#fff" stroke-width="4" stroke-linecap="round"/>
  <path d="M27 39c0-4 2-7 5-7s5 3 5 7c0 5-1 9-3 12" fill="none" stroke="#fff" stroke-width="4" stroke-linecap="round"/>
  <path d="M18 38c0 6 2 11 6 15" fill="none" stroke="#bfe2ff" stroke-width="4" stroke-linecap="round"/>
  <circle cx="49" cy="16" r="7" fill="#ffb547" stroke="#fff" stroke-width="2"/>
  <path d="M49 12.7v4.5" stroke="#6b3f00" stroke-width="2.2" stroke-linecap="round"/>
  <circle cx="49" cy="20" r="1.2" fill="#6b3f00"/>
</svg>
